<svg width="169" height="62" viewBox="0 0 169 62" fill="none" xmlns="http://www.w3.org/2000/svg">
<path d="M33.456 56V53.12H37.824C39.072 53.12 40.128 52.872 40.992 52.376C41.872 51.864 42.536 51.168 42.984 50.288C43.448 49.408 43.68 48.4 43.68 47.264C43.68 46.144 43.456 45.16 43.008 44.312C42.56 43.464 41.896 42.8 41.016 42.32C40.152 41.84 39.088 41.6 37.824 41.6H33.528V38.72H37.824C39.76 38.72 41.448 39.072 42.888 39.776C44.328 40.464 45.44 41.456 46.224 42.752C47.024 44.032 47.424 45.552 47.424 47.312C47.424 49.072 47.024 50.608 46.224 51.92C45.424 53.216 44.304 54.224 42.864 54.944C41.44 55.648 39.768 56 37.848 56H33.456ZM31.2 56V38.72H34.896V56H31.2ZM55.2938 56.24C53.9338 56.24 52.7498 55.976 51.7418 55.448C50.7338 54.904 49.9498 54.152 49.3898 53.192C48.8458 52.232 48.5738 51.128 48.5738 49.88C48.5738 48.616 48.8458 47.512 49.3898 46.568C49.9498 45.608 50.7258 44.864 51.7178 44.336C52.7098 43.792 53.8618 43.52 55.1738 43.52C56.4378 43.52 57.5338 43.776 58.4618 44.288C59.3898 44.8 60.1098 45.512 60.6218 46.424C61.1338 47.336 61.3898 48.408 61.3898 49.64C61.3898 49.896 61.3818 50.136 61.3658 50.36C61.3498 50.568 61.3258 50.768 61.2938 50.96H50.6858V48.584H58.3898L57.7658 49.016C57.7658 48.024 57.5258 47.296 57.0458 46.832C56.5818 46.352 55.9418 46.112 55.1258 46.112C54.1818 46.112 53.4458 46.432 52.9178 47.072C52.4058 47.712 52.1498 48.672 52.1498 49.952C52.1498 51.2 52.4058 52.128 52.9178 52.736C53.4458 53.344 54.2298 53.648 55.2698 53.648C55.8458 53.648 56.3418 53.552 56.7578 53.36C57.1738 53.168 57.4858 52.856 57.6938 52.424H61.0778C60.6778 53.608 59.9898 54.544 59.0138 55.232C58.0538 55.904 56.8138 56.24 55.2938 56.24ZM66.2994 56L61.4754 43.76H65.3394L69.1074 55.184H67.0914L70.8354 43.76H74.6034L69.7794 56H66.2994ZM88.701 56.24C86.989 56.24 85.461 55.864 84.117 55.112C82.789 54.36 81.741 53.312 80.973 51.968C80.221 50.624 79.845 49.064 79.845 47.288C79.845 45.528 80.221 43.992 80.973 42.68C81.725 41.352 82.765 40.32 84.093 39.584C85.437 38.848 86.965 38.48 88.677 38.48C90.421 38.48 91.957 38.848 93.285 39.584C94.613 40.32 95.653 41.352 96.405 42.68C97.173 44.008 97.557 45.552 97.557 47.312C97.557 48.432 97.373 49.488 97.005 50.48C96.653 51.472 96.077 52.328 95.277 53.048C94.493 53.768 93.453 54.304 92.157 54.656L88.701 56.24ZM88.677 53.456C89.685 53.456 90.573 53.208 91.341 52.712C92.109 52.216 92.709 51.504 93.141 50.576C93.589 49.648 93.813 48.544 93.813 47.264C93.813 46.08 93.597 45.048 93.165 44.168C92.733 43.288 92.133 42.608 91.365 42.128C90.597 41.648 89.701 41.408 88.677 41.408C87.669 41.408 86.781 41.648 86.013 42.128C85.245 42.608 84.645 43.288 84.213 44.168C83.797 45.032 83.589 46.064 83.589 47.264C83.589 48.56 83.805 49.672 84.237 50.6C84.669 51.512 85.269 52.216 86.037 52.712C86.805 53.208 87.685 53.456 88.677 53.456ZM88.701 56.24V53.648L98.445 53.168V56C97.421 56 96.501 56.008 95.685 56.024C94.885 56.056 94.125 56.088 93.405 56.12C92.685 56.152 91.949 56.176 91.197 56.192C90.445 56.224 89.613 56.24 88.701 56.24ZM104.025 56.24C103.161 56.24 102.417 56.056 101.793 55.688C101.185 55.304 100.721 54.8 100.401 54.176C100.081 53.536 99.921 52.824 99.921 52.04V43.76H103.521V51.344C103.521 52.016 103.689 52.52 104.025 52.856C104.361 53.192 104.833 53.36 105.441 53.36C105.985 53.36 106.465 53.232 106.881 52.976C107.297 52.72 107.625 52.368 107.865 51.92C108.121 51.456 108.249 50.928 108.249 50.336L108.561 53.288C108.161 54.168 107.577 54.88 106.809 55.424C106.041 55.968 105.113 56.24 104.025 56.24ZM108.321 56V53.12H108.249V43.76H111.849V56H108.321ZM120.475 56.24C119.131 56.24 117.947 55.976 116.923 55.448C115.915 54.904 115.123 54.152 114.547 53.192C113.987 52.216 113.707 51.096 113.707 49.832C113.707 48.568 113.987 47.464 114.547 46.52C115.123 45.576 115.915 44.84 116.923 44.312C117.947 43.784 119.131 43.52 120.475 43.52C121.835 43.52 123.019 43.784 124.027 44.312C125.051 44.84 125.843 45.576 126.403 46.52C126.963 47.464 127.243 48.568 127.243 49.832C127.243 51.096 126.955 52.216 126.379 53.192C125.819 54.152 125.027 54.904 124.003 55.448C122.995 55.976 121.819 56.24 120.475 56.24ZM120.475 53.408C121.035 53.408 121.539 53.264 121.987 52.976C122.451 52.688 122.819 52.28 123.091 51.752C123.363 51.208 123.499 50.56 123.499 49.808C123.499 48.704 123.203 47.856 122.611 47.264C122.035 46.656 121.323 46.352 120.475 46.352C119.627 46.352 118.907 46.656 118.315 47.264C117.739 47.872 117.451 48.72 117.451 49.808C117.451 50.56 117.587 51.208 117.859 51.752C118.131 52.28 118.491 52.688 118.939 52.976C119.403 53.264 119.915 53.408 120.475 53.408ZM134.607 56.264C133.039 56.264 131.871 55.888 131.103 55.136C130.351 54.368 129.975 53.208 129.975 51.656V41.024L133.575 39.68V51.776C133.575 52.32 133.727 52.728 134.031 53C134.335 53.272 134.807 53.408 135.447 53.408C135.687 53.408 135.911 53.384 136.119 53.336C136.327 53.288 136.535 53.232 136.743 53.168V55.904C136.535 56.016 136.239 56.104 135.855 56.168C135.487 56.232 135.071 56.264 134.607 56.264ZM127.695 46.496V43.76H136.743V46.496H127.695ZM144.239 56.24C142.879 56.24 141.695 55.976 140.687 55.448C139.679 54.904 138.895 54.152 138.335 53.192C137.791 52.232 137.519 51.128 137.519 49.88C137.519 48.616 137.791 47.512 138.335 46.568C138.895 45.608 139.671 44.864 140.663 44.336C141.655 43.792 142.807 43.52 144.119 43.52C145.383 43.52 146.479 43.776 147.407 44.288C148.335 44.8 149.055 45.512 149.567 46.424C150.079 47.336 150.335 48.408 150.335 49.64C150.335 49.896 150.327 50.136 150.311 50.36C150.295 50.568 150.271 50.768 150.239 50.96H139.631V48.584H147.335L146.711 49.016C146.711 48.024 146.471 47.296 145.991 46.832C145.527 46.352 144.887 46.112 144.071 46.112C143.127 46.112 142.391 46.432 141.863 47.072C141.351 47.712 141.095 48.672 141.095 49.952C141.095 51.2 141.351 52.128 141.863 52.736C142.391 53.344 143.175 53.648 144.215 53.648C144.791 53.648 145.287 53.552 145.703 53.36C146.119 53.168 146.431 52.856 146.639 52.424H150.023C149.623 53.608 148.935 54.544 147.959 55.232C146.999 55.904 145.759 56.24 144.239 56.24ZM157.322 56.24C155.53 56.24 154.106 55.88 153.05 55.16C151.994 54.44 151.418 53.448 151.322 52.184H154.538C154.618 52.728 154.89 53.144 155.354 53.432C155.834 53.704 156.49 53.84 157.322 53.84C158.074 53.84 158.618 53.736 158.954 53.528C159.306 53.304 159.482 52.992 159.482 52.592C159.482 52.288 159.378 52.056 159.17 51.896C158.978 51.72 158.618 51.576 158.09 51.464L156.122 51.056C154.666 50.752 153.594 50.296 152.906 49.688C152.218 49.064 151.874 48.264 151.874 47.288C151.874 46.104 152.33 45.184 153.242 44.528C154.154 43.856 155.426 43.52 157.058 43.52C158.674 43.52 159.962 43.848 160.922 44.504C161.882 45.144 162.41 46.04 162.506 47.192H159.29C159.226 46.776 159.002 46.464 158.618 46.256C158.234 46.032 157.69 45.92 156.986 45.92C156.346 45.92 155.866 46.016 155.546 46.208C155.242 46.384 155.09 46.64 155.09 46.976C155.09 47.264 155.218 47.496 155.474 47.672C155.73 47.832 156.154 47.976 156.746 48.104L158.954 48.56C160.186 48.816 161.114 49.296 161.738 50C162.378 50.688 162.698 51.504 162.698 52.448C162.698 53.648 162.226 54.584 161.282 55.256C160.354 55.912 159.034 56.24 157.322 56.24Z" fill="black"/>
<path d="M2.976 55.064V51.56C4.48 51.112 5.456 50.456 5.904 49.592C6.352 48.728 6.576 47.608 6.576 46.232L9.504 47H2.88V39.08H10.8V44.696C10.8 47.224 10.208 49.4 9.024 51.224C7.84 53.048 5.824 54.328 2.976 55.064ZM14.9291 55.064V51.56C16.4331 51.112 17.4091 50.456 17.8571 49.592C18.3051 48.728 18.5291 47.608 18.5291 46.232L21.4571 47H14.8331V39.08H22.7531V44.696C22.7531 47.224 22.1611 49.4 20.9771 51.224C19.7931 53.048 17.7771 54.328 14.9291 55.064Z" fill="black"/>
<rect x="4" y="41" width="4" height="4" fill="white"/>
<rect x="16" y="41" width="4" height="4" fill="white"/>
<line x1="2.5" y1="40" x2="2.5" y2="47" stroke="black"/>
<line x1="14.5" y1="40" x2="14.5" y2="47" stroke="black"/>
</svg>
