<svg width="100" height="100" viewBox="0 0 100 100" fill="none" xmlns="http://www.w3.org/2000/svg">
<g clip-path="url(#clip0_211_101)">
<rect width="100" height="100" fill="white"/>
<path d="M23.936 75.504V66.16C27.9467 64.9653 30.5493 63.216 31.744 60.912C32.9387 58.608 33.536 55.6213 33.536 51.952L41.344 54H23.68V32.88H44.8V47.856C44.8 54.5973 43.2213 60.4 40.064 65.264C36.9067 70.128 31.5307 73.5413 23.936 75.504ZM55.811 75.504V66.16C59.8217 64.9653 62.4243 63.216 63.619 60.912C64.8137 58.608 65.411 55.6213 65.411 51.952L73.219 54H55.555V32.88H76.675V47.856C76.675 54.5973 75.0963 60.4 71.939 65.264C68.7817 70.128 63.4057 73.5413 55.811 75.504Z" fill="black"/>
<rect x="29" y="38" width="10" height="10" fill="white"/>
<rect x="61" y="38" width="10" height="10" fill="white"/>
</g>
<defs>
<clipPath id="clip0_211_101">
<rect width="100" height="100" fill="white"/>
</clipPath>
</defs>
</svg>
